<?xml version="1.0" encoding="UTF-8"?>
<svg xmlns="http://www.w3.org/2000/svg" version="1.1" width="100" height="100" viewBox="0 0 100 100"><rect x="0" y="0" width="100" height="100" fill="#ffffff"/><g transform="scale(4)"><g transform="translate(0,0)"><path fill-rule="evenodd" d="M10 0L10 1L9 1L9 2L8 2L8 3L9 3L9 5L10 5L10 7L11 7L11 8L12 8L12 9L11 9L11 10L10 10L10 9L9 9L9 6L8 6L8 8L4 8L4 9L3 9L3 8L0 8L0 9L1 9L1 10L2 10L2 11L1 11L1 12L2 12L2 11L3 11L3 13L1 13L1 14L0 14L0 15L1 15L1 16L0 16L0 17L1 17L1 16L4 16L4 15L7 15L7 16L5 16L5 17L8 17L8 21L9 21L9 22L8 22L8 25L11 25L11 24L12 24L12 25L13 25L13 24L12 24L12 23L11 23L11 22L12 22L12 20L14 20L14 22L13 22L13 23L14 23L14 22L15 22L15 19L16 19L16 24L15 24L15 25L18 25L18 24L19 24L19 25L20 25L20 24L21 24L21 21L22 21L22 20L21 20L21 16L20 16L20 15L18 15L18 14L19 14L19 12L18 12L18 11L21 11L21 10L20 10L20 9L19 9L19 8L17 8L17 5L16 5L16 4L15 4L15 2L17 2L17 0L14 0L14 1L13 1L13 2L14 2L14 4L13 4L13 3L12 3L12 2L11 2L11 3L12 3L12 5L10 5L10 3L9 3L9 2L10 2L10 1L11 1L11 0ZM14 1L14 2L15 2L15 1ZM11 6L11 7L12 7L12 8L13 8L13 7L14 7L14 6L13 6L13 7L12 7L12 6ZM15 6L15 7L16 7L16 6ZM14 8L14 10L13 10L13 11L14 11L14 10L15 10L15 13L14 13L14 12L12 12L12 11L11 11L11 12L12 12L12 14L9 14L9 13L10 13L10 12L9 12L9 11L10 11L10 10L9 10L9 9L5 9L5 10L3 10L3 9L2 9L2 10L3 10L3 11L5 11L5 12L4 12L4 14L1 14L1 15L4 15L4 14L5 14L5 13L6 13L6 14L7 14L7 15L8 15L8 14L9 14L9 16L8 16L8 17L9 17L9 21L10 21L10 22L11 22L11 20L12 20L12 19L11 19L11 17L12 17L12 16L13 16L13 17L14 17L14 18L13 18L13 19L14 19L14 18L16 18L16 16L15 16L15 15L16 15L16 13L17 13L17 11L18 11L18 10L17 10L17 11L16 11L16 9L17 9L17 8ZM22 8L22 9L23 9L23 8ZM24 9L24 10L23 10L23 14L21 14L21 15L25 15L25 13L24 13L24 12L25 12L25 9ZM5 10L5 11L8 11L8 10ZM6 12L6 13L7 13L7 14L8 14L8 12ZM13 14L13 15L14 15L14 14ZM11 15L11 16L9 16L9 17L11 17L11 16L12 16L12 15ZM17 17L17 20L20 20L20 17ZM22 17L22 18L23 18L23 21L25 21L25 20L24 20L24 19L25 19L25 18L24 18L24 17ZM18 18L18 19L19 19L19 18ZM10 19L10 20L11 20L11 19ZM17 21L17 24L18 24L18 23L19 23L19 24L20 24L20 23L19 23L19 22L20 22L20 21ZM22 22L22 23L23 23L23 25L25 25L25 24L24 24L24 23L25 23L25 22L24 22L24 23L23 23L23 22ZM9 23L9 24L11 24L11 23ZM0 0L0 7L7 7L7 0ZM1 1L1 6L6 6L6 1ZM2 2L2 5L5 5L5 2ZM18 0L18 7L25 7L25 0ZM19 1L19 6L24 6L24 1ZM20 2L20 5L23 5L23 2ZM0 18L0 25L7 25L7 18ZM1 19L1 24L6 24L6 19ZM2 20L2 23L5 23L5 20Z" fill="#000000"/></g></g></svg>
