<?xml version="1.0" encoding="UTF-8"?>
<svg xmlns="http://www.w3.org/2000/svg" version="1.1" width="100" height="100" viewBox="0 0 100 100"><rect x="0" y="0" width="100" height="100" fill="#ffffff"/><g transform="scale(4)"><g transform="translate(0,0)"><path fill-rule="evenodd" d="M9 0L9 1L10 1L10 2L8 2L8 3L9 3L9 4L10 4L10 5L9 5L9 6L8 6L8 8L4 8L4 10L3 10L3 8L0 8L0 9L2 9L2 10L3 10L3 11L4 11L4 12L2 12L2 13L1 13L1 14L0 14L0 15L1 15L1 16L0 16L0 17L1 17L1 16L2 16L2 17L5 17L5 15L7 15L7 16L6 16L6 17L8 17L8 21L9 21L9 22L8 22L8 25L12 25L12 24L14 24L14 25L15 25L15 24L16 24L16 25L22 25L22 24L20 24L20 23L23 23L23 25L25 25L25 24L24 24L24 23L25 23L25 22L24 22L24 23L23 23L23 22L21 22L21 18L22 18L22 19L24 19L24 21L25 21L25 18L24 18L24 17L23 17L23 18L22 18L22 17L21 17L21 16L22 16L22 15L25 15L25 12L23 12L23 13L24 13L24 14L20 14L20 15L19 15L19 13L20 13L20 11L21 11L21 10L22 10L22 9L23 9L23 8L22 8L22 9L21 9L21 10L19 10L19 8L17 8L17 6L16 6L16 4L15 4L15 3L16 3L16 2L17 2L17 1L16 1L16 0L15 0L15 2L14 2L14 5L13 5L13 6L12 6L12 8L11 8L11 6L10 6L10 5L11 5L11 4L12 4L12 3L13 3L13 0L12 0L12 1L10 1L10 0ZM11 2L11 3L12 3L12 2ZM9 6L9 7L10 7L10 6ZM13 6L13 7L14 7L14 6ZM15 6L15 7L16 7L16 6ZM9 8L9 10L10 10L10 11L9 11L9 12L8 12L8 11L6 11L6 12L4 12L4 13L2 13L2 14L1 14L1 15L3 15L3 16L4 16L4 15L3 15L3 14L5 14L5 13L6 13L6 14L7 14L7 13L9 13L9 14L8 14L8 16L9 16L9 21L12 21L12 20L13 20L13 21L14 21L14 22L13 22L13 23L14 23L14 22L15 22L15 23L16 23L16 22L17 22L17 24L18 24L18 23L20 23L20 22L19 22L19 21L16 21L16 19L15 19L15 18L14 18L14 16L12 16L12 15L11 15L11 13L12 13L12 12L13 12L13 13L14 13L14 14L13 14L13 15L14 15L14 14L15 14L15 15L16 15L16 13L15 13L15 12L16 12L16 11L17 11L17 12L19 12L19 11L17 11L17 10L18 10L18 9L17 9L17 10L16 10L16 9L14 9L14 8L12 8L12 10L10 10L10 8ZM5 9L5 10L7 10L7 9ZM24 9L24 10L23 10L23 11L25 11L25 9ZM0 10L0 11L1 11L1 10ZM13 10L13 11L14 11L14 10ZM11 11L11 12L12 12L12 11ZM6 12L6 13L7 13L7 12ZM17 14L17 16L19 16L19 15L18 15L18 14ZM9 15L9 16L10 16L10 20L12 20L12 19L11 19L11 18L12 18L12 16L11 16L11 15ZM20 15L20 16L21 16L21 15ZM15 16L15 17L16 17L16 16ZM17 17L17 20L20 20L20 17ZM13 18L13 19L14 19L14 18ZM18 18L18 19L19 19L19 18ZM15 21L15 22L16 22L16 21ZM9 22L9 23L11 23L11 24L12 24L12 23L11 23L11 22ZM0 0L0 7L7 7L7 0ZM1 1L1 6L6 6L6 1ZM2 2L2 5L5 5L5 2ZM18 0L18 7L25 7L25 0ZM19 1L19 6L24 6L24 1ZM20 2L20 5L23 5L23 2ZM0 18L0 25L7 25L7 18ZM1 19L1 24L6 24L6 19ZM2 20L2 23L5 23L5 20Z" fill="#000000"/></g></g></svg>
