<?xml version="1.0" encoding="UTF-8"?>
<svg xmlns="http://www.w3.org/2000/svg" version="1.1" width="100" height="100" viewBox="0 0 100 100"><rect x="0" y="0" width="100" height="100" fill="#ffffff"/><g transform="scale(4)"><g transform="translate(0,0)"><path fill-rule="evenodd" d="M9 0L9 1L10 1L10 2L8 2L8 3L9 3L9 4L10 4L10 5L9 5L9 6L8 6L8 8L4 8L4 11L5 11L5 12L4 12L4 13L3 13L3 14L4 14L4 15L1 15L1 14L0 14L0 15L1 15L1 16L0 16L0 17L1 17L1 16L2 16L2 17L4 17L4 15L5 15L5 14L6 14L6 15L7 15L7 16L6 16L6 17L8 17L8 21L9 21L9 22L8 22L8 25L12 25L12 24L14 24L14 25L19 25L19 23L21 23L21 22L22 22L22 23L23 23L23 25L25 25L25 24L24 24L24 23L25 23L25 22L24 22L24 23L23 23L23 22L22 22L22 21L21 21L21 20L22 20L22 19L24 19L24 21L25 21L25 18L24 18L24 16L23 16L23 18L22 18L22 17L21 17L21 14L20 14L20 16L16 16L16 15L19 15L19 12L21 12L21 11L22 11L22 10L19 10L19 8L16 8L16 7L17 7L17 5L16 5L16 4L15 4L15 3L14 3L14 4L13 4L13 6L12 6L12 8L11 8L11 6L10 6L10 5L11 5L11 4L12 4L12 3L13 3L13 2L14 2L14 1L15 1L15 2L16 2L16 3L17 3L17 2L16 2L16 0L12 0L12 1L10 1L10 0ZM11 2L11 3L12 3L12 2ZM9 6L9 7L10 7L10 6ZM13 6L13 7L14 7L14 8L12 8L12 10L10 10L10 8L9 8L9 9L8 9L8 10L10 10L10 11L9 11L9 13L6 13L6 14L8 14L8 15L9 15L9 16L10 16L10 17L11 17L11 16L12 16L12 18L11 18L11 19L10 19L10 18L9 18L9 19L10 19L10 20L9 20L9 21L10 21L10 22L9 22L9 23L10 23L10 24L12 24L12 23L10 23L10 22L11 22L11 21L12 21L12 20L13 20L13 21L14 21L14 22L13 22L13 23L14 23L14 22L15 22L15 24L16 24L16 22L17 22L17 23L19 23L19 21L16 21L16 20L15 20L15 18L14 18L14 16L12 16L12 15L9 15L9 13L10 13L10 14L11 14L11 13L12 13L12 12L13 12L13 13L14 13L14 14L13 14L13 15L14 15L14 14L15 14L15 15L16 15L16 13L15 13L15 12L16 12L16 9L14 9L14 8L15 8L15 7L16 7L16 6L15 6L15 7L14 7L14 6ZM0 8L0 10L2 10L2 9L3 9L3 8ZM22 8L22 9L23 9L23 11L25 11L25 9L23 9L23 8ZM5 9L5 11L6 11L6 12L7 12L7 11L6 11L6 10L7 10L7 9ZM17 9L17 12L19 12L19 11L18 11L18 9ZM13 10L13 11L14 11L14 10ZM1 11L1 12L0 12L0 13L1 13L1 12L2 12L2 11ZM11 11L11 12L12 12L12 11ZM24 12L24 13L22 13L22 14L23 14L23 15L25 15L25 12ZM4 13L4 14L5 14L5 13ZM17 13L17 14L18 14L18 13ZM15 16L15 17L16 17L16 16ZM17 17L17 20L20 20L20 17ZM13 18L13 19L14 19L14 18ZM18 18L18 19L19 19L19 18ZM11 19L11 20L12 20L12 19ZM15 21L15 22L16 22L16 21ZM20 24L20 25L21 25L21 24ZM0 0L0 7L7 7L7 0ZM1 1L1 6L6 6L6 1ZM2 2L2 5L5 5L5 2ZM18 0L18 7L25 7L25 0ZM19 1L19 6L24 6L24 1ZM20 2L20 5L23 5L23 2ZM0 18L0 25L7 25L7 18ZM1 19L1 24L6 24L6 19ZM2 20L2 23L5 23L5 20Z" fill="#000000"/></g></g></svg>
