<?xml version="1.0" encoding="UTF-8"?>
<svg xmlns="http://www.w3.org/2000/svg" version="1.1" width="100" height="100" viewBox="0 0 100 100"><rect x="0" y="0" width="100" height="100" fill="#ffffff"/><g transform="scale(4)"><g transform="translate(0,0)"><path fill-rule="evenodd" d="M8 0L8 4L10 4L10 3L11 3L11 4L12 4L12 2L11 2L11 0ZM12 0L12 1L13 1L13 2L14 2L14 3L13 3L13 5L11 5L11 6L10 6L10 7L9 7L9 5L8 5L8 7L9 7L9 8L10 8L10 7L11 7L11 6L12 6L12 8L11 8L11 9L8 9L8 10L2 10L2 8L0 8L0 12L1 12L1 13L0 13L0 14L1 14L1 13L4 13L4 15L3 15L3 14L2 14L2 15L3 15L3 16L4 16L4 17L7 17L7 16L8 16L8 15L7 15L7 14L8 14L8 12L6 12L6 13L7 13L7 14L6 14L6 15L5 15L5 12L1 12L1 10L2 10L2 11L9 11L9 10L11 10L11 11L10 11L10 13L11 13L11 12L12 12L12 13L13 13L13 14L15 14L15 15L14 15L14 16L13 16L13 15L12 15L12 16L11 16L11 17L12 17L12 18L10 18L10 17L8 17L8 18L10 18L10 19L8 19L8 21L9 21L9 23L8 23L8 25L10 25L10 20L12 20L12 21L13 21L13 22L17 22L17 25L18 25L18 23L20 23L20 21L21 21L21 24L19 24L19 25L21 25L21 24L22 24L22 25L25 25L25 24L24 24L24 22L25 22L25 19L24 19L24 21L23 21L23 17L24 17L24 18L25 18L25 17L24 17L24 16L23 16L23 13L24 13L24 12L25 12L25 11L24 11L24 12L23 12L23 9L25 9L25 8L21 8L21 9L20 9L20 8L19 8L19 9L20 9L20 10L19 10L19 12L18 12L18 11L17 11L17 10L18 10L18 9L16 9L16 8L15 8L15 5L16 5L16 7L17 7L17 4L16 4L16 3L17 3L17 2L16 2L16 3L15 3L15 1L17 1L17 0L14 0L14 1L13 1L13 0ZM9 2L9 3L10 3L10 2ZM14 4L14 5L13 5L13 8L12 8L12 9L11 9L11 10L12 10L12 9L13 9L13 10L14 10L14 9L13 9L13 8L14 8L14 5L15 5L15 4ZM4 8L4 9L7 9L7 8ZM20 10L20 12L19 12L19 13L18 13L18 12L17 12L17 14L18 14L18 16L21 16L21 20L22 20L22 15L21 15L21 14L20 14L20 13L22 13L22 11L21 11L21 10ZM12 11L12 12L13 12L13 11ZM14 11L14 13L16 13L16 12L15 12L15 11ZM9 14L9 15L11 15L11 14ZM19 14L19 15L20 15L20 14ZM4 15L4 16L5 16L5 15ZM6 15L6 16L7 16L7 15ZM15 15L15 17L13 17L13 16L12 16L12 17L13 17L13 18L15 18L15 19L14 19L14 21L16 21L16 18L15 18L15 17L16 17L16 15ZM0 16L0 17L2 17L2 16ZM17 17L17 20L20 20L20 17ZM18 18L18 19L19 19L19 18ZM12 19L12 20L13 20L13 19ZM22 21L22 22L23 22L23 21ZM12 23L12 24L11 24L11 25L12 25L12 24L13 24L13 25L16 25L16 23L14 23L14 24L13 24L13 23ZM0 0L0 7L7 7L7 0ZM1 1L1 6L6 6L6 1ZM2 2L2 5L5 5L5 2ZM18 0L18 7L25 7L25 0ZM19 1L19 6L24 6L24 1ZM20 2L20 5L23 5L23 2ZM0 18L0 25L7 25L7 18ZM1 19L1 24L6 24L6 19ZM2 20L2 23L5 23L5 20Z" fill="#000000"/></g></g></svg>
