<?xml version="1.0" encoding="UTF-8"?>
<svg xmlns="http://www.w3.org/2000/svg" version="1.1" width="100" height="100" viewBox="0 0 100 100"><rect x="0" y="0" width="100" height="100" fill="#ffffff"/><g transform="scale(4.762)"><g transform="translate(0,0)"><path fill-rule="evenodd" d="M8 0L8 1L9 1L9 2L8 2L8 5L10 5L10 7L11 7L11 8L10 8L10 10L9 10L9 8L8 8L8 10L9 10L9 11L7 11L7 10L6 10L6 9L7 9L7 8L6 8L6 9L4 9L4 8L0 8L0 9L1 9L1 10L0 10L0 13L1 13L1 12L2 12L2 13L4 13L4 12L5 12L5 13L8 13L8 14L9 14L9 13L10 13L10 14L11 14L11 16L9 16L9 17L8 17L8 21L11 21L11 20L9 20L9 18L10 18L10 19L13 19L13 21L15 21L15 20L16 20L16 19L13 19L13 18L14 18L14 17L11 17L11 16L13 16L13 15L14 15L14 14L15 14L15 17L16 17L16 15L17 15L17 16L18 16L18 17L17 17L17 18L18 18L18 17L19 17L19 16L20 16L20 17L21 17L21 16L20 16L20 15L19 15L19 14L21 14L21 13L18 13L18 14L17 14L17 13L16 13L16 14L15 14L15 12L18 12L18 11L19 11L19 12L20 12L20 11L21 11L21 8L20 8L20 9L19 9L19 8L16 8L16 9L14 9L14 8L13 8L13 10L15 10L15 12L10 12L10 11L12 11L12 10L11 10L11 8L12 8L12 7L13 7L13 6L12 6L12 5L13 5L13 2L10 2L10 1L11 1L11 0ZM9 3L9 4L10 4L10 5L12 5L12 3L11 3L11 4L10 4L10 3ZM8 6L8 7L9 7L9 6ZM11 6L11 7L12 7L12 6ZM17 9L17 10L16 10L16 11L17 11L17 10L18 10L18 9ZM1 10L1 11L2 11L2 12L3 12L3 11L4 11L4 10L3 10L3 11L2 11L2 10ZM5 11L5 12L7 12L7 11ZM11 13L11 14L12 14L12 15L13 15L13 14L12 14L12 13ZM10 17L10 18L11 18L11 17ZM20 19L20 20L21 20L21 19ZM18 20L18 21L19 21L19 20ZM0 0L0 7L7 7L7 0ZM1 1L1 6L6 6L6 1ZM2 2L2 5L5 5L5 2ZM14 0L14 7L21 7L21 0ZM15 1L15 6L20 6L20 1ZM16 2L16 5L19 5L19 2ZM0 14L0 21L7 21L7 14ZM1 15L1 20L6 20L6 15ZM2 16L2 19L5 19L5 16Z" fill="#000000"/></g></g></svg>
