<?xml version="1.0" encoding="UTF-8"?>
<svg xmlns="http://www.w3.org/2000/svg" version="1.1" width="100" height="100" viewBox="0 0 100 100"><rect x="0" y="0" width="100" height="100" fill="#ffffff"/><g transform="scale(4)"><g transform="translate(0,0)"><path fill-rule="evenodd" d="M8 0L8 1L9 1L9 2L8 2L8 5L9 5L9 4L11 4L11 5L10 5L10 10L9 10L9 8L8 8L8 10L6 10L6 11L8 11L8 12L6 12L6 13L8 13L8 14L9 14L9 13L11 13L11 15L10 15L10 16L12 16L12 17L13 17L13 16L12 16L12 14L13 14L13 15L14 15L14 18L13 18L13 21L15 21L15 22L14 22L14 23L11 23L11 22L10 22L10 21L11 21L11 20L12 20L12 19L11 19L11 18L10 18L10 17L9 17L9 16L8 16L8 15L7 15L7 14L6 14L6 15L5 15L5 17L7 17L7 16L8 16L8 18L9 18L9 21L8 21L8 25L10 25L10 24L11 24L11 25L12 25L12 24L16 24L16 21L17 21L17 22L18 22L18 23L21 23L21 25L25 25L25 24L23 24L23 23L24 23L24 22L25 22L25 21L23 21L23 23L22 23L22 22L21 22L21 21L22 21L22 19L21 19L21 17L22 17L22 18L23 18L23 19L24 19L24 20L25 20L25 18L24 18L24 16L25 16L25 15L24 15L24 14L25 14L25 12L24 12L24 11L22 11L22 10L23 10L23 8L20 8L20 9L19 9L19 10L20 10L20 11L19 11L19 12L17 12L17 13L15 13L15 12L16 12L16 11L15 11L15 12L14 12L14 14L13 14L13 12L12 12L12 13L11 13L11 11L14 11L14 8L13 8L13 6L12 6L12 5L14 5L14 7L15 7L15 8L16 8L16 10L17 10L17 9L18 9L18 8L16 8L16 7L17 7L17 6L16 6L16 7L15 7L15 5L17 5L17 3L15 3L15 1L14 1L14 0L12 0L12 1L11 1L11 0L10 0L10 1L9 1L9 0ZM16 0L16 1L17 1L17 0ZM13 1L13 2L11 2L11 4L12 4L12 3L13 3L13 2L14 2L14 1ZM8 6L8 7L9 7L9 6ZM11 6L11 8L12 8L12 6ZM0 8L0 11L2 11L2 13L1 13L1 15L0 15L0 16L1 16L1 15L2 15L2 17L3 17L3 16L4 16L4 13L3 13L3 11L2 11L2 9L4 9L4 10L5 10L5 9L4 9L4 8ZM6 8L6 9L7 9L7 8ZM24 8L24 9L25 9L25 8ZM11 9L11 10L12 10L12 9ZM20 9L20 10L21 10L21 9ZM8 10L8 11L9 11L9 10ZM4 11L4 12L5 12L5 11ZM20 11L20 12L19 12L19 15L21 15L21 16L23 16L23 14L24 14L24 13L22 13L22 12L21 12L21 11ZM8 12L8 13L9 13L9 12ZM20 12L20 14L21 14L21 15L22 15L22 14L21 14L21 12ZM2 14L2 15L3 15L3 14ZM14 14L14 15L16 15L16 16L17 16L17 15L18 15L18 14ZM6 15L6 16L7 16L7 15ZM15 17L15 19L16 19L16 17ZM17 17L17 20L20 20L20 17ZM18 18L18 19L19 19L19 18ZM10 19L10 20L11 20L11 19ZM15 20L15 21L16 21L16 20ZM19 21L19 22L20 22L20 21ZM9 23L9 24L10 24L10 23ZM17 24L17 25L18 25L18 24ZM0 0L0 7L7 7L7 0ZM1 1L1 6L6 6L6 1ZM2 2L2 5L5 5L5 2ZM18 0L18 7L25 7L25 0ZM19 1L19 6L24 6L24 1ZM20 2L20 5L23 5L23 2ZM0 18L0 25L7 25L7 18ZM1 19L1 24L6 24L6 19ZM2 20L2 23L5 23L5 20Z" fill="#000000"/></g></g></svg>
