<?xml version="1.0" encoding="UTF-8"?>
<svg xmlns="http://www.w3.org/2000/svg" version="1.1" width="100" height="100" viewBox="0 0 100 100"><rect x="0" y="0" width="100" height="100" fill="#ffffff"/><g transform="scale(4)"><g transform="translate(0,0)"><path fill-rule="evenodd" d="M8 0L8 4L10 4L10 3L11 3L11 4L12 4L12 2L11 2L11 0ZM12 0L12 1L13 1L13 2L15 2L15 3L13 3L13 5L11 5L11 6L10 6L10 7L9 7L9 5L8 5L8 7L9 7L9 8L10 8L10 7L11 7L11 6L12 6L12 8L11 8L11 9L9 9L9 10L11 10L11 11L10 11L10 13L9 13L9 12L8 12L8 11L7 11L7 10L6 10L6 9L7 9L7 8L4 8L4 9L3 9L3 10L1 10L1 12L0 12L0 14L1 14L1 13L2 13L2 14L3 14L3 13L2 13L2 12L3 12L3 11L4 11L4 13L7 13L7 14L6 14L6 15L5 15L5 14L4 14L4 16L3 16L3 15L2 15L2 16L0 16L0 17L2 17L2 16L3 16L3 17L8 17L8 18L9 18L9 17L10 17L10 18L11 18L11 20L12 20L12 21L13 21L13 22L15 22L15 23L14 23L14 24L13 24L13 23L12 23L12 24L10 24L10 23L11 23L11 21L10 21L10 20L9 20L9 19L8 19L8 21L10 21L10 23L8 23L8 25L12 25L12 24L13 24L13 25L16 25L16 23L20 23L20 21L21 21L21 23L22 23L22 24L20 24L20 25L25 25L25 24L24 24L24 22L25 22L25 19L24 19L24 21L23 21L23 18L25 18L25 15L24 15L24 17L23 17L23 10L24 10L24 9L25 9L25 8L21 8L21 9L20 9L20 8L19 8L19 9L20 9L20 10L21 10L21 11L22 11L22 17L21 17L21 16L20 16L20 14L21 14L21 13L20 13L20 12L19 12L19 11L16 11L16 10L17 10L17 9L16 9L16 8L17 8L17 4L16 4L16 2L15 2L15 1L16 1L16 0ZM9 2L9 3L10 3L10 2ZM15 5L15 7L16 7L16 5ZM13 6L13 8L12 8L12 9L11 9L11 10L12 10L12 9L13 9L13 10L14 10L14 9L13 9L13 8L14 8L14 6ZM0 8L0 9L2 9L2 8ZM4 9L4 11L6 11L6 12L7 12L7 11L6 11L6 10L5 10L5 9ZM21 9L21 10L23 10L23 9ZM12 11L12 12L11 12L11 13L10 13L10 14L9 14L9 13L8 13L8 15L6 15L6 16L8 16L8 17L9 17L9 15L10 15L10 14L11 14L11 16L12 16L12 17L11 17L11 18L12 18L12 17L13 17L13 18L15 18L15 19L14 19L14 21L16 21L16 22L17 22L17 21L16 21L16 20L15 20L15 19L16 19L16 16L15 16L15 17L13 17L13 16L14 16L14 15L15 15L15 14L16 14L16 11L14 11L14 13L15 13L15 14L13 14L13 13L12 13L12 12L13 12L13 11ZM24 12L24 13L25 13L25 12ZM18 13L18 14L17 14L17 16L19 16L19 13ZM12 15L12 16L13 16L13 15ZM17 17L17 20L20 20L20 17ZM22 17L22 18L21 18L21 21L22 21L22 18L23 18L23 17ZM18 18L18 19L19 19L19 18ZM12 19L12 20L13 20L13 19ZM22 22L22 23L23 23L23 22ZM17 24L17 25L18 25L18 24ZM0 0L0 7L7 7L7 0ZM1 1L1 6L6 6L6 1ZM2 2L2 5L5 5L5 2ZM18 0L18 7L25 7L25 0ZM19 1L19 6L24 6L24 1ZM20 2L20 5L23 5L23 2ZM0 18L0 25L7 25L7 18ZM1 19L1 24L6 24L6 19ZM2 20L2 23L5 23L5 20Z" fill="#000000"/></g></g></svg>
