<?xml version="1.0" encoding="UTF-8"?>
<svg xmlns="http://www.w3.org/2000/svg" version="1.1" width="100" height="100" viewBox="0 0 100 100"><rect x="0" y="0" width="100" height="100" fill="#ffffff"/><g transform="scale(4)"><g transform="translate(0,0)"><path fill-rule="evenodd" d="M9 0L9 1L8 1L8 2L9 2L9 3L8 3L8 4L10 4L10 7L11 7L11 4L12 4L12 5L13 5L13 4L16 4L16 5L14 5L14 8L13 8L13 6L12 6L12 9L13 9L13 10L11 10L11 11L10 11L10 9L11 9L11 8L6 8L6 9L5 9L5 8L0 8L0 11L1 11L1 13L0 13L0 17L1 17L1 13L2 13L2 12L4 12L4 14L3 14L3 15L4 15L4 16L2 16L2 17L4 17L4 16L5 16L5 17L7 17L7 16L6 16L6 15L8 15L8 13L9 13L9 17L8 17L8 19L10 19L10 20L11 20L11 21L9 21L9 20L8 20L8 25L11 25L11 24L10 24L10 23L11 23L11 21L12 21L12 22L13 22L13 23L12 23L12 25L13 25L13 24L14 24L14 25L15 25L15 24L17 24L17 25L18 25L18 24L20 24L20 25L25 25L25 14L23 14L23 15L24 15L24 16L19 16L19 14L20 14L20 15L22 15L22 13L25 13L25 10L23 10L23 9L24 9L24 8L23 8L23 9L22 9L22 8L21 8L21 9L22 9L22 10L23 10L23 12L22 12L22 13L21 13L21 12L20 12L20 8L19 8L19 10L18 10L18 8L17 8L17 9L16 9L16 7L17 7L17 0L16 0L16 1L15 1L15 0L14 0L14 2L15 2L15 3L13 3L13 4L12 4L12 2L13 2L13 1L11 1L11 2L10 2L10 0ZM10 3L10 4L11 4L11 3ZM8 5L8 7L9 7L9 5ZM15 6L15 7L16 7L16 6ZM1 9L1 10L2 10L2 9ZM4 9L4 10L3 10L3 11L5 11L5 14L7 14L7 13L6 13L6 12L7 12L7 11L8 11L8 12L9 12L9 11L8 11L8 10L9 10L9 9L6 9L6 10L5 10L5 9ZM14 9L14 10L13 10L13 11L12 11L12 13L11 13L11 12L10 12L10 13L11 13L11 16L10 16L10 17L9 17L9 18L10 18L10 19L11 19L11 18L13 18L13 19L12 19L12 21L15 21L15 23L14 23L14 24L15 24L15 23L17 23L17 24L18 24L18 23L19 23L19 22L20 22L20 24L24 24L24 22L23 22L23 21L22 21L22 20L24 20L24 19L22 19L22 17L21 17L21 21L22 21L22 22L23 22L23 23L21 23L21 22L20 22L20 21L19 21L19 22L18 22L18 23L17 23L17 21L15 21L15 20L16 20L16 18L15 18L15 17L14 17L14 16L15 16L15 15L14 15L14 16L13 16L13 17L12 17L12 15L13 15L13 14L12 14L12 13L14 13L14 14L16 14L16 15L17 15L17 16L18 16L18 14L19 14L19 13L18 13L18 12L19 12L19 11L18 11L18 10L16 10L16 9ZM6 10L6 11L7 11L7 10ZM14 10L14 12L15 12L15 13L16 13L16 10ZM17 11L17 12L18 12L18 11ZM20 13L20 14L21 14L21 13ZM10 17L10 18L11 18L11 17ZM17 17L17 20L20 20L20 17ZM18 18L18 19L19 19L19 18ZM14 19L14 20L15 20L15 19ZM0 0L0 7L7 7L7 0ZM1 1L1 6L6 6L6 1ZM2 2L2 5L5 5L5 2ZM18 0L18 7L25 7L25 0ZM19 1L19 6L24 6L24 1ZM20 2L20 5L23 5L23 2ZM0 18L0 25L7 25L7 18ZM1 19L1 24L6 24L6 19ZM2 20L2 23L5 23L5 20Z" fill="#000000"/></g></g></svg>
