<?xml version="1.0" encoding="UTF-8"?>
<svg xmlns="http://www.w3.org/2000/svg" version="1.1" width="100" height="100" viewBox="0 0 100 100"><rect x="0" y="0" width="100" height="100" fill="#ffffff"/><g transform="scale(4)"><g transform="translate(0,0)"><path fill-rule="evenodd" d="M10 0L10 2L11 2L11 0ZM12 0L12 1L13 1L13 0ZM8 1L8 2L9 2L9 1ZM15 1L15 3L13 3L13 2L12 2L12 4L14 4L14 5L11 5L11 6L10 6L10 4L11 4L11 3L8 3L8 4L9 4L9 5L8 5L8 7L9 7L9 8L6 8L6 9L8 9L8 11L7 11L7 10L5 10L5 8L0 8L0 9L4 9L4 10L3 10L3 11L1 11L1 10L0 10L0 11L1 11L1 12L0 12L0 17L1 17L1 14L2 14L2 17L3 17L3 15L4 15L4 17L5 17L5 16L6 16L6 17L8 17L8 19L9 19L9 20L8 20L8 25L9 25L9 24L10 24L10 23L11 23L11 25L12 25L12 23L13 23L13 22L10 22L10 21L11 21L11 17L12 17L12 18L13 18L13 19L12 19L12 21L13 21L13 20L14 20L14 21L15 21L15 23L14 23L14 24L15 24L15 25L16 25L16 24L17 24L17 25L25 25L25 20L24 20L24 19L25 19L25 14L23 14L23 16L18 16L18 15L19 15L19 14L20 14L20 13L21 13L21 14L22 14L22 13L24 13L24 12L25 12L25 10L23 10L23 9L24 9L24 8L23 8L23 9L22 9L22 8L21 8L21 9L22 9L22 10L20 10L20 8L19 8L19 10L18 10L18 8L17 8L17 6L16 6L16 5L17 5L17 4L16 4L16 3L17 3L17 1ZM15 4L15 5L16 5L16 4ZM9 6L9 7L10 7L10 6ZM11 6L11 7L12 7L12 9L11 9L11 8L10 8L10 9L9 9L9 11L8 11L8 12L7 12L7 11L6 11L6 12L7 12L7 13L5 13L5 11L3 11L3 12L4 12L4 13L5 13L5 14L7 14L7 15L6 15L6 16L7 16L7 15L11 15L11 14L13 14L13 15L12 15L12 17L16 17L16 16L17 16L17 15L16 15L16 16L14 16L14 15L15 15L15 14L16 14L16 13L14 13L14 12L17 12L17 11L14 11L14 12L13 12L13 13L12 13L12 11L13 11L13 10L12 10L12 9L14 9L14 10L16 10L16 9L15 9L15 7L16 7L16 6L15 6L15 7L14 7L14 6L13 6L13 7L12 7L12 6ZM10 9L10 11L11 11L11 9ZM19 10L19 11L20 11L20 12L19 12L19 13L17 13L17 14L19 14L19 13L20 13L20 12L24 12L24 11L23 11L23 10L22 10L22 11L20 11L20 10ZM9 12L9 14L10 14L10 13L11 13L11 12ZM9 16L9 17L11 17L11 16ZM17 17L17 20L20 20L20 17ZM21 17L21 20L23 20L23 21L22 21L22 22L20 22L20 21L19 21L19 22L17 22L17 21L16 21L16 23L17 23L17 24L18 24L18 23L21 23L21 24L24 24L24 22L23 22L23 21L24 21L24 20L23 20L23 18L22 18L22 17ZM9 18L9 19L10 19L10 18ZM18 18L18 19L19 19L19 18ZM14 19L14 20L16 20L16 19ZM9 20L9 21L10 21L10 20ZM22 22L22 23L23 23L23 22ZM0 0L0 7L7 7L7 0ZM1 1L1 6L6 6L6 1ZM2 2L2 5L5 5L5 2ZM18 0L18 7L25 7L25 0ZM19 1L19 6L24 6L24 1ZM20 2L20 5L23 5L23 2ZM0 18L0 25L7 25L7 18ZM1 19L1 24L6 24L6 19ZM2 20L2 23L5 23L5 20Z" fill="#000000"/></g></g></svg>
