<?xml version="1.0" encoding="UTF-8"?>
<svg xmlns="http://www.w3.org/2000/svg" version="1.1" width="100" height="100" viewBox="0 0 100 100"><rect x="0" y="0" width="100" height="100" fill="#ffffff"/><g transform="scale(4)"><g transform="translate(0,0)"><path fill-rule="evenodd" d="M8 0L8 1L9 1L9 2L8 2L8 5L9 5L9 4L11 4L11 5L10 5L10 10L9 10L9 8L8 8L8 11L9 11L9 14L10 14L10 15L8 15L8 12L6 12L6 11L7 11L7 10L3 10L3 9L4 9L4 8L0 8L0 9L1 9L1 11L0 11L0 13L2 13L2 12L6 12L6 13L5 13L5 14L4 14L4 13L3 13L3 14L1 14L1 15L0 15L0 16L1 16L1 15L2 15L2 16L3 16L3 17L4 17L4 16L6 16L6 17L8 17L8 18L9 18L9 20L10 20L10 22L11 22L11 20L12 20L12 19L11 19L11 20L10 20L10 18L9 18L9 17L10 17L10 15L11 15L11 16L12 16L12 17L13 17L13 16L12 16L12 14L13 14L13 15L14 15L14 18L13 18L13 21L15 21L15 22L14 22L14 23L11 23L11 24L9 24L9 21L8 21L8 25L12 25L12 24L15 24L15 25L16 25L16 24L15 24L15 22L16 22L16 21L17 21L17 24L19 24L19 23L20 23L20 24L22 24L22 25L25 25L25 24L23 24L23 23L24 23L24 22L25 22L25 21L23 21L23 23L22 23L22 22L21 22L21 20L22 20L22 18L23 18L23 19L24 19L24 20L25 20L25 18L24 18L24 17L23 17L23 16L25 16L25 15L24 15L24 14L25 14L25 13L24 13L24 12L25 12L25 11L24 11L24 12L23 12L23 11L21 11L21 10L20 10L20 9L23 9L23 8L20 8L20 9L19 9L19 10L18 10L18 12L17 12L17 13L15 13L15 12L16 12L16 11L17 11L17 9L18 9L18 8L17 8L17 4L15 4L15 3L16 3L16 2L17 2L17 0L16 0L16 2L15 2L15 0L14 0L14 1L13 1L13 0L12 0L12 1L11 1L11 0L10 0L10 1L9 1L9 0ZM11 2L11 4L12 4L12 3L13 3L13 2ZM14 2L14 3L15 3L15 2ZM13 4L13 5L12 5L12 6L11 6L11 8L12 8L12 6L13 6L13 8L14 8L14 11L11 11L11 13L10 13L10 14L11 14L11 13L12 13L12 12L13 12L13 14L14 14L14 15L16 15L16 14L14 14L14 12L15 12L15 11L16 11L16 9L15 9L15 8L16 8L16 5L15 5L15 7L14 7L14 6L13 6L13 5L14 5L14 4ZM8 6L8 7L9 7L9 6ZM6 8L6 9L7 9L7 8ZM24 8L24 9L25 9L25 8ZM11 9L11 10L12 10L12 9ZM2 10L2 11L3 11L3 10ZM19 10L19 11L20 11L20 12L19 12L19 14L20 14L20 16L21 16L21 18L22 18L22 16L23 16L23 15L22 15L22 16L21 16L21 14L20 14L20 12L21 12L21 11L20 11L20 10ZM6 13L6 14L5 14L5 15L6 15L6 16L8 16L8 15L6 15L6 14L7 14L7 13ZM22 13L22 14L23 14L23 13ZM3 15L3 16L4 16L4 15ZM18 15L18 16L19 16L19 15ZM15 16L15 19L16 19L16 16ZM17 17L17 20L20 20L20 17ZM18 18L18 19L19 19L19 18ZM15 20L15 21L16 21L16 20ZM0 0L0 7L7 7L7 0ZM1 1L1 6L6 6L6 1ZM2 2L2 5L5 5L5 2ZM18 0L18 7L25 7L25 0ZM19 1L19 6L24 6L24 1ZM20 2L20 5L23 5L23 2ZM0 18L0 25L7 25L7 18ZM1 19L1 24L6 24L6 19ZM2 20L2 23L5 23L5 20Z" fill="#000000"/></g></g></svg>
