<?xml version="1.0" encoding="UTF-8"?>
<svg xmlns="http://www.w3.org/2000/svg" version="1.1" width="100" height="100" viewBox="0 0 100 100"><rect x="0" y="0" width="100" height="100" fill="#ffffff"/><g transform="scale(4)"><g transform="translate(0,0)"><path fill-rule="evenodd" d="M8 0L8 1L9 1L9 2L8 2L8 5L9 5L9 4L11 4L11 5L10 5L10 10L9 10L9 8L8 8L8 9L7 9L7 8L6 8L6 9L7 9L7 10L6 10L6 11L5 11L5 12L6 12L6 13L1 13L1 12L2 12L2 11L1 11L1 12L0 12L0 13L1 13L1 15L0 15L0 16L1 16L1 15L2 15L2 16L3 16L3 17L7 17L7 16L9 16L9 17L8 17L8 18L9 18L9 17L10 17L10 21L8 21L8 25L9 25L9 24L10 24L10 25L12 25L12 24L16 24L16 23L15 23L15 22L14 22L14 23L10 23L10 22L11 22L11 20L12 20L12 19L11 19L11 16L12 16L12 17L13 17L13 16L12 16L12 14L13 14L13 15L14 15L14 18L13 18L13 21L15 21L15 20L16 20L16 22L17 22L17 23L18 23L18 24L17 24L17 25L19 25L19 24L20 24L20 23L22 23L22 24L21 24L21 25L25 25L25 24L23 24L23 23L24 23L24 22L25 22L25 21L22 21L22 22L21 22L21 20L22 20L22 19L21 19L21 16L19 16L19 15L18 15L18 16L16 16L16 19L15 19L15 15L14 15L14 14L17 14L17 13L18 13L18 14L21 14L21 15L24 15L24 14L25 14L25 12L24 12L24 11L23 11L23 8L20 8L20 9L19 9L19 10L16 10L16 12L17 12L17 13L15 13L15 12L14 12L14 14L13 14L13 12L12 12L12 13L11 13L11 11L14 11L14 8L15 8L15 5L16 5L16 7L17 7L17 4L15 4L15 2L14 2L14 0L12 0L12 1L11 1L11 0L10 0L10 1L9 1L9 0ZM16 0L16 2L17 2L17 0ZM11 2L11 4L12 4L12 3L13 3L13 2ZM12 5L12 6L11 6L11 8L12 8L12 6L13 6L13 8L14 8L14 6L13 6L13 5ZM8 6L8 7L9 7L9 6ZM0 8L0 10L1 10L1 9L4 9L4 10L5 10L5 9L4 9L4 8ZM16 8L16 9L18 9L18 8ZM24 8L24 9L25 9L25 8ZM11 9L11 10L12 10L12 9ZM20 9L20 10L19 10L19 11L18 11L18 12L19 12L19 13L20 13L20 12L21 12L21 11L22 11L22 9ZM20 10L20 11L21 11L21 10ZM3 11L3 12L4 12L4 11ZM6 11L6 12L7 12L7 11ZM8 11L8 12L9 12L9 11ZM6 13L6 14L8 14L8 15L9 15L9 16L11 16L11 13ZM21 13L21 14L22 14L22 13ZM2 14L2 15L4 15L4 16L5 16L5 15L4 15L4 14ZM9 14L9 15L10 15L10 14ZM6 15L6 16L7 16L7 15ZM22 16L22 18L23 18L23 19L24 19L24 20L25 20L25 18L24 18L24 17L23 17L23 16ZM17 17L17 20L20 20L20 17ZM18 18L18 19L19 19L19 18ZM19 21L19 22L20 22L20 21ZM22 22L22 23L23 23L23 22ZM0 0L0 7L7 7L7 0ZM1 1L1 6L6 6L6 1ZM2 2L2 5L5 5L5 2ZM18 0L18 7L25 7L25 0ZM19 1L19 6L24 6L24 1ZM20 2L20 5L23 5L23 2ZM0 18L0 25L7 25L7 18ZM1 19L1 24L6 24L6 19ZM2 20L2 23L5 23L5 20Z" fill="#000000"/></g></g></svg>
