<?xml version="1.0" encoding="UTF-8"?>
<svg xmlns="http://www.w3.org/2000/svg" version="1.1" width="100" height="100" viewBox="0 0 100 100"><rect x="0" y="0" width="100" height="100" fill="#ffffff"/><g transform="scale(4)"><g transform="translate(0,0)"><path fill-rule="evenodd" d="M8 0L8 4L9 4L9 5L8 5L8 7L9 7L9 6L10 6L10 9L11 9L11 8L12 8L12 9L13 9L13 11L12 11L12 12L11 12L11 13L10 13L10 14L9 14L9 13L7 13L7 12L6 12L6 11L7 11L7 10L9 10L9 12L10 12L10 11L11 11L11 10L9 10L9 9L7 9L7 8L4 8L4 9L3 9L3 10L2 10L2 8L0 8L0 9L1 9L1 10L0 10L0 11L1 11L1 12L2 12L2 13L0 13L0 14L2 14L2 16L0 16L0 17L5 17L5 16L3 16L3 15L5 15L5 14L6 14L6 15L7 15L7 14L8 14L8 15L9 15L9 16L6 16L6 17L8 17L8 18L9 18L9 19L8 19L8 21L9 21L9 23L8 23L8 25L11 25L11 24L12 24L12 25L14 25L14 23L15 23L15 22L16 22L16 23L17 23L17 25L21 25L21 24L20 24L20 22L19 22L19 21L21 21L21 23L22 23L22 25L25 25L25 24L24 24L24 22L25 22L25 20L24 20L24 19L23 19L23 18L25 18L25 15L23 15L23 14L22 14L22 13L24 13L24 12L25 12L25 11L24 11L24 12L23 12L23 9L25 9L25 8L21 8L21 9L20 9L20 8L19 8L19 9L20 9L20 10L19 10L19 11L18 11L18 9L16 9L16 7L17 7L17 6L16 6L16 7L15 7L15 6L14 6L14 8L15 8L15 12L13 12L13 11L14 11L14 9L13 9L13 8L12 8L12 7L13 7L13 6L12 6L12 7L11 7L11 3L10 3L10 2L9 2L9 0ZM13 0L13 1L11 1L11 2L12 2L12 5L13 5L13 4L14 4L14 5L17 5L17 0ZM13 1L13 3L15 3L15 2L16 2L16 1L15 1L15 2L14 2L14 1ZM4 9L4 10L3 10L3 11L2 11L2 12L3 12L3 11L4 11L4 10L5 10L5 11L6 11L6 10L7 10L7 9ZM20 10L20 13L18 13L18 11L17 11L17 12L15 12L15 13L16 13L16 14L18 14L18 16L19 16L19 15L20 15L20 16L22 16L22 14L20 14L20 13L21 13L21 12L22 12L22 11L21 11L21 10ZM4 12L4 14L5 14L5 12ZM12 12L12 13L11 13L11 14L10 14L10 16L9 16L9 17L11 17L11 19L10 19L10 20L9 20L9 21L10 21L10 20L12 20L12 21L11 21L11 22L12 22L12 21L13 21L13 22L15 22L15 21L16 21L16 22L17 22L17 21L16 21L16 18L13 18L13 17L12 17L12 16L13 16L13 15L12 15L12 16L11 16L11 14L12 14L12 13L13 13L13 14L14 14L14 13L13 13L13 12ZM2 13L2 14L3 14L3 13ZM6 13L6 14L7 14L7 13ZM14 15L14 17L16 17L16 16L17 16L17 15L16 15L16 16L15 16L15 15ZM17 17L17 20L20 20L20 17ZM21 17L21 18L23 18L23 17ZM18 18L18 19L19 19L19 18ZM12 19L12 20L13 20L13 21L15 21L15 19L14 19L14 20L13 20L13 19ZM21 19L21 20L22 20L22 19ZM22 21L22 22L23 22L23 21ZM9 23L9 24L11 24L11 23ZM12 23L12 24L13 24L13 23ZM18 23L18 24L19 24L19 23ZM15 24L15 25L16 25L16 24ZM0 0L0 7L7 7L7 0ZM1 1L1 6L6 6L6 1ZM2 2L2 5L5 5L5 2ZM18 0L18 7L25 7L25 0ZM19 1L19 6L24 6L24 1ZM20 2L20 5L23 5L23 2ZM0 18L0 25L7 25L7 18ZM1 19L1 24L6 24L6 19ZM2 20L2 23L5 23L5 20Z" fill="#000000"/></g></g></svg>
